<?xml version="1.0" encoding="UTF-8"?>
<svg id="Layer_1" data-name="Layer 1" xmlns="http://www.w3.org/2000/svg" viewBox="0 0 226.77 226.77">
  <defs>
    <style>
      .cls-1 {
        fill: none;
      }
    </style>
  </defs>
  <path class="cls-1" d="M60.19,79.15l-31.58-.1c-1.43,0-3.43,1.93-3.21,3.14.17.95,1.99,2.31,3.02,2.37l10.93.58,8.57,9.17c-4.23-.7-9.16.18-11.49,2.93-2.91,3.45-4.11,8.62-1.85,12.61l56.93-.02c2.14-3.11,1.03-8.5-1.07-11.83-1.37-2.17-4.73-3.55-8.22-4.38,14.8-10.9,16.9-30.44,4.88-43.27l-2-9.65,4.55-6.46c-.53-1.29-1.76-2.86-1.24-3.39l2.5-2.61c1.06-1.11,3.81-4.6,2.7-5.78-2.94-3.08-6.01-5.89-9.41-8.79-2.53,1.14-5.01,3.6-6.99,5.83l-5.69.29-27.86,31.26-.08,5.32-4.19,7.06,9.06,8.01c3.45,3.05,6.89-4.13,8.52-4.19.69-.02,3.39.86,3.97.58l10.68-11.53c4.52.5,8.59.74,11.62-2.36,9.05,10.4,7.56,25.09-2.48,33.91s-25.82,8.08-34.22-2.94l14.01-.25c1.16-.02,3.03-2.36,2.7-3.38-.26-.81-2.1-2.13-3.03-2.13ZM165.42,104.29c4.13-4.12-.43-8.96,6.16-11.21,4.8-1.64,8.12,7.58,12.86,2.79l8.22-8.29c1.12-1.13.8-4.89-.54-5.96-3.1-2.49-3.82-8.72.15-9.69l8.53-2.07c.1-6.34,3.06-19.26-5.24-18.98-2.97.1-4.97-.93-5.89-3.46-1.62-4.42,3.54-5.51,3.94-11.24-3.47-4.22-7.57-8.07-12.03-11.28l-6.94,4.2c-1.57.95-6.06-.43-6.49-2.18l-2.11-8.62c-5.67-.36-11.34-.38-17.05-.1-3.4,5.2-.39,8.89-5.6,10.99-5.68,2.29-8.14-8.05-14.21-1.58l-7.36,7.84c-3.34,3.56,5.51,7.37,2.82,13.22-1.93,4.2-10.97.92-11.11,5.55l-.37,12.83c-.19,6.73,9.47,1.15,11.8,7.95,1.97,5.74-7.51,7.93-2.18,13.38l7.07,7.23c5.48,5.61,8.5-5.23,14.36-1.89,5.11,2.92,1.74,10.7,6.27,10.99s10.81.27,14.93-.4ZM58.16,212.44c9.15-8.58,11.06-19.97,9.02-31.5,14.24,2.35,28.53.9,35.56-13.49,3.56-7.28,3.39-14.96,1.88-23.21,10.96,4.06,29.96-.4,32.55-10.15.17-.64-2.15-2.44-2.72-2.1-1.2.73-2.95,1.96-4.61,3.19l-22.49-22.46,2.7-3.91c.57-.83.46-3.15-.33-3.76-.63-.49-2.85-.21-3.44.32-8.67,7.87-11.3,19.65-8.61,31.3-5.69-.54-10.79-1.42-15.83-.9-12.52,1.31-21.73,10.93-22.82,23.3-.41,4.67.12,9.4.52,14.33-11.25-2.36-22.58-.83-30.93,7.07-.73.69-1.4,3.1-1.23,4.08.14.78,2.32,1.99,2.96,1.5l4.58-3.49,22.04,22.19-2.74,4.48c-.52.85-.47,2.9.22,3.59.55.55,3.14.16,3.72-.39ZM157.04,202c4.36-6.53,6.18-14.7,6.97-22.48l4.83-47.85c1.06-10.48,6.16-11.81,6.24-11.31l.43,2.64c.33,2.03,1.55,4.79,3.1,5.38,2.09.8,5.3.16,6.28-1.18.91-1.24,1.4-4.89.67-6.18-1.93-3.41-5.39-5.26-8.52-5.46-9.36-.61-15.03,8.55-16.46,17.09-3.92,23.52-3.95,41.17-7.96,64.76-.45,2.65-3.48,5.67-5.15,5.22-.63-3.64-1.48-6.69-4.11-7.7-1.9-.73-5.18.31-6.29,1.85-1.17,1.63-.98,5.78.59,7.51,5.27,5.79,14.59,4.89,19.37-2.28Z"/>
  <path d="M58.16,212.44c-.58.55-3.17.94-3.72.39-.69-.69-.74-2.73-.22-3.59l2.74-4.48-22.04-22.19-4.58,3.49c-.64.49-2.82-.73-2.96-1.5-.17-.97.5-3.38,1.23-4.08,8.35-7.9,19.67-9.43,30.93-7.07-.4-4.93-.94-9.66-.52-14.33,1.1-12.38,10.31-21.99,22.82-23.3,5.04-.53,10.14.35,15.83.9-2.69-11.65-.06-23.44,8.61-31.3.59-.53,2.81-.81,3.44-.32.79.61.9,2.93.33,3.76l-2.7,3.91,22.49,22.46c1.67-1.23,3.41-2.46,4.61-3.19.56-.34,2.89,1.46,2.72,2.1-2.58,9.75-21.59,14.21-32.55,10.15,1.51,8.25,1.67,15.93-1.88,23.21-7.03,14.38-21.32,15.84-35.56,13.49,2.04,11.53.13,22.92-9.02,31.5ZM118.89,139.08c1.06,1.07,5.36-.45,6.06-1.55l-20.22-20.39c-.9,1.85-1.57,4.18-1.63,6.04l15.79,15.9ZM112.18,139.84l-9.27-9.89c-.09,3.74.04,6.25.4,8.71l8.87,1.18ZM98.93,157.6l-15.03-15.19c-1.17-1.18-4.74-.67-6.76.28l21.15,21.58c.51-.64,1.92-5.38.64-6.67ZM97.96,143.08c-1.61-1.33-4.98-1.43-7.46-1.29l8.93,9.55c.42-1.81.53-6.62-1.47-8.26ZM91.23,171.46c1.45.07,4.6-2.59,3.78-3.41l-22.13-22.55c-1.74.11-4.27,3.02-3.4,3.97l21.74,21.99ZM80.95,175.54c1.15,1.16,4.9,0,6.34-1.08l-21.18-21.21-1.31,5.97,16.16,16.32ZM74.32,176.08l-9.25-9.72c-.36,1.88-.28,6.84,1.41,7.99,1.91,1.3,6.02,1.71,7.84,1.74ZM60.19,179.56c-2.37-1.25-5.74-1.63-8.72-1.84l10.33,9.93c.54-2.26.31-7.08-1.61-8.09ZM60.91,194.03l-14.62-14.59c-1.53-1.53-4.96-.91-6.81.88l20.06,20.02c1.48-1.91,2.12-4.67,1.36-6.31Z"/>
  <path d="M60.19,79.15c.94,0,2.77,1.32,3.03,2.13.33,1.02-1.54,3.36-2.7,3.38l-14.01.25c8.4,11.02,23.95,11.97,34.22,2.94s11.52-23.51,2.48-33.91c-3.03,3.1-7.1,2.86-11.62,2.36l-10.68,11.53c-.58.28-3.28-.6-3.97-.58-1.64.06-5.07,7.24-8.52,4.19l-9.06-8.01,4.19-7.06.08-5.32,27.86-31.26,5.69-.29c1.98-2.23,4.46-4.69,6.99-5.83,3.41,2.9,6.48,5.71,9.41,8.79,1.12,1.17-1.63,4.66-2.7,5.78l-2.5,2.61c-.52.54.71,2.1,1.24,3.39l-4.55,6.46,2,9.65c12.02,12.83,9.91,32.37-4.88,43.27,3.49.83,6.85,2.21,8.22,4.38,2.1,3.32,3.21,8.71,1.07,11.83l-56.93.02c-2.25-3.99-1.06-9.16,1.85-12.61,2.33-2.75,7.26-3.63,11.49-2.93l-8.57-9.17-10.93-.58c-1.04-.06-2.85-1.42-3.02-2.37-.22-1.21,1.79-3.15,3.21-3.14l31.58.1ZM86.59,24c0-1.47-1.19-2.66-2.67-2.66s-2.67,1.19-2.67,2.66,1.19,2.66,2.67,2.66,2.67-1.19,2.67-2.66ZM68.55,41.46c5.78-7.45,11.41-.3,14.38-7.85l-9.02-8.2-24.34,27.32,9.34,8.6c15.92-13.35,3.39-11.81,9.64-19.87ZM80.76,47.11c0-2.44-1.98-4.41-4.43-4.41s-4.43,1.98-4.43,4.41,1.98,4.41,4.43,4.41,4.43-1.98,4.43-4.41ZM86.68,104.5c.19-3.98-2.18-5.31-5.09-5.31l-36.03.03c-3.09,0-5.74.95-6.22,5.26l47.33.02Z"/>
  <path d="M165.42,104.29c-4.12.68-10.39.69-14.93.4s-1.16-8.07-6.27-10.99c-5.86-3.35-8.88,7.5-14.36,1.89l-7.07-7.23c-5.32-5.45,4.15-7.63,2.18-13.38-2.33-6.8-11.99-1.22-11.8-7.95l.37-12.83c.13-4.63,9.18-1.35,11.11-5.55,2.69-5.85-6.16-9.66-2.82-13.22l7.36-7.84c6.07-6.47,8.53,3.87,14.21,1.58,5.21-2.1,2.2-5.79,5.6-10.99,5.71-.28,11.38-.26,17.05.1l2.11,8.62c.43,1.74,4.92,3.12,6.49,2.18l6.94-4.2c4.46,3.2,8.55,7.06,12.03,11.28-.4,5.73-5.56,6.81-3.94,11.24.93,2.53,2.93,3.56,5.89,3.46,8.3-.28,5.34,12.65,5.24,18.98l-8.53,2.07c-3.98.97-3.25,7.2-.15,9.69,1.34,1.07,1.66,4.83.54,5.96l-8.22,8.29c-4.75,4.79-8.06-4.43-12.86-2.79-6.58,2.25-2.03,7.09-6.16,11.21ZM161.47,98.96l1.95-8.31,10.85-4.71,6.79,4.75c2.03-1.15,5.76-4.26,5.81-6.47-.63-2.01-4.41-5.25-3.86-7.04.96-3.14,2.45-7.02,3.8-9.99l8.82-1.65-.51-8.64-8.5-1.75-4.02-10.77,4.63-6.94c-1.69-1.68-4.51-4.32-6.1-5.55l-6.75,4.57-11.45-4.61-1.25-8.29-8.77.08-1.93,8.48-10.38,4.39-7.12-4.81-5.9,5.88,4.69,7.23-4.65,10.82-8.49,1.04.16,9.13,8.73,1.4,4.22,11.28-4.88,6.53c1.87,2.06,4.63,4.63,6.65,5.5,2.06-1.34,5.47-4.68,7.38-3.89l9.9,4.09,1.75,8.29,8.47-.03Z"/>
  <path d="M157.04,202c-4.79,7.17-14.1,8.06-19.37,2.28-1.57-1.72-1.76-5.88-.59-7.51,1.11-1.54,4.39-2.58,6.29-1.85,2.63,1.02,3.49,4.07,4.11,7.7,1.67.45,4.7-2.57,5.15-5.22,4.01-23.59,4.04-41.24,7.96-64.76,1.42-8.54,7.09-17.7,16.46-17.09,3.13.2,6.59,2.05,8.52,5.46.73,1.29.24,4.94-.67,6.18-.98,1.34-4.19,1.97-6.28,1.18-1.55-.59-2.77-3.35-3.1-5.38l-.43-2.64c-.08-.49-5.18.83-6.24,11.31l-4.83,47.85c-.79,7.78-2.61,15.95-6.97,22.48Z"/>
  <path class="cls-1" d="M91.23,171.46l-21.74-21.99c-.87-.95,1.66-3.86,3.4-3.97l22.13,22.55c.81.83-2.34,3.48-3.78,3.41Z"/>
  <path class="cls-1" d="M118.89,139.08l-15.79-15.9c.07-1.86.73-4.19,1.63-6.04l20.22,20.39c-.7,1.1-5,2.63-6.06,1.55Z"/>
  <path class="cls-1" d="M98.93,157.6c1.28,1.29-.12,6.04-.64,6.67l-21.15-21.58c2.02-.95,5.59-1.46,6.76-.28l15.03,15.19Z"/>
  <path class="cls-1" d="M60.91,194.03c.76,1.64.12,4.41-1.36,6.31l-20.06-20.02c1.85-1.79,5.28-2.41,6.81-.88l14.62,14.59Z"/>
  <path class="cls-1" d="M80.95,175.54l-16.16-16.32,1.31-5.97,21.18,21.21c-1.44,1.08-5.19,2.24-6.34,1.08Z"/>
  <path class="cls-1" d="M112.18,139.84l-8.87-1.18c-.36-2.46-.49-4.96-.4-8.71l9.27,9.89Z"/>
  <path class="cls-1" d="M60.19,179.56c1.92,1.01,2.16,5.83,1.61,8.09l-10.33-9.93c2.97.21,6.35.59,8.72,1.84Z"/>
  <path class="cls-1" d="M74.32,176.08c-1.82-.03-5.93-.44-7.84-1.74-1.69-1.15-1.77-6.1-1.41-7.99l9.25,9.72Z"/>
  <path class="cls-1" d="M97.96,143.08c2,1.64,1.89,6.45,1.47,8.26l-8.93-9.55c2.47-.14,5.84-.04,7.46,1.29Z"/>
  <path class="cls-1" d="M68.55,41.46c-6.25,8.06,6.29,6.52-9.64,19.87l-9.34-8.6,24.34-27.32,9.02,8.2c-2.97,7.55-8.61.4-14.38,7.85Z"/>
  <path class="cls-1" d="M86.68,104.5l-47.33-.02c.48-4.31,3.13-5.26,6.22-5.26l36.03-.03c2.91,0,5.28,1.33,5.09,5.31Z"/>
  <ellipse class="cls-1" cx="76.33" cy="47.11" rx="4.43" ry="4.41"/>
  <ellipse class="cls-1" cx="83.92" cy="24" rx="2.67" ry="2.66"/>
  <path class="cls-1" d="M161.47,98.96l-8.47.03-1.75-8.29-9.9-4.09c-1.91-.79-5.32,2.55-7.38,3.89-2.02-.87-4.79-3.44-6.65-5.5l4.88-6.53-4.22-11.28-8.73-1.4-.16-9.13,8.49-1.04,4.65-10.82-4.69-7.23,5.9-5.88,7.12,4.81,10.38-4.39,1.93-8.48,8.77-.08,1.25,8.29,11.45,4.61,6.75-4.57c1.59,1.23,4.42,3.87,6.1,5.55l-4.63,6.94,4.02,10.77,8.5,1.75.51,8.64-8.82,1.65c-1.34,2.97-2.83,6.84-3.8,9.99-.55,1.8,3.23,5.04,3.86,7.04-.05,2.21-3.77,5.31-5.81,6.47l-6.79-4.75-10.85,4.71-1.95,8.31ZM178.29,61.21c0-11.57-9.42-20.96-21.04-20.96s-21.04,9.38-21.04,20.96,9.42,20.96,21.04,20.96,21.04-9.38,21.04-20.96Z"/>
  <path d="M178.29,61.21c0,11.57-9.42,20.96-21.04,20.96s-21.04-9.38-21.04-20.96,9.42-20.96,21.04-20.96,21.04,9.38,21.04,20.96ZM172.28,61.19c0-8.3-6.75-15.02-15.08-15.02s-15.08,6.73-15.08,15.02,6.75,15.02,15.08,15.02,15.08-6.73,15.08-15.02Z"/>
  <ellipse class="cls-1" cx="157.2" cy="61.19" rx="15.08" ry="15.02"/>
</svg>