<?xml version="1.0" encoding="UTF-8"?>
<svg id="Layer_1" data-name="Layer 1" xmlns="http://www.w3.org/2000/svg" viewBox="0 0 226.77 226.77">
  <defs>
    <style>
      .cls-1 {
        fill: none;
      }
    </style>
  </defs>
  <path class="cls-1" d="M187.69,158.28l-3.9-14.37c7.55.21,13.23-5.41,11.76-12.48-2.46-11.8-5.65-23.18-9.3-34.63-2.56-8.02-8.17-13.7-14.67-18.31,4.43-.66,7.89-1.29,10.45-3.33-3.36-8.17-4.86-14.87-5.09-22.89-.39-13.6-9.92-24.59-23.33-25.12-12.73-.5-24.23,9.32-25.23,22.79-.67,9.06-1.79,16.52-5.31,25.41,3.3,1.47,5.94,2.33,10.09,3.65l-7.49,6.05-12.22-4.49c-10.65-13.88-17.33-13.54-33.85-15.67,11.87-3.84,18.6-14.64,16.72-26.37-1.72-10.73-11.61-19.4-23.4-19.11-10.91.27-20.95,8.59-22.32,20.24-1.29,10.9,5.33,21.25,16.78,25.21l-12.17,1.75c-13.59,1.95-24.22,13.11-24.22,27.03v38.93c0,4,2.94,8.23,5.68,10.16,3.33,2.34,7.56,2.11,11.94,1.45l.12,50.12c.02,6.58,4.79,11.45,10.44,12.71,5.95,1.33,11.44-1.47,14.5-6.87,2.94,4.68,6.96,7,11.14,7.14,4.47.15,8.97-1.36,10.92-5.83,1.7,2.99,4.6,5.35,8.16,5.86s7.12-2.1,9.4-4.19c2.64,2.12,6.44,4.73,10.37,4.14,3.24-.49,5.92-3.16,8.06-5.99,2.51,4.13,6.55,6.32,10.94,6.13,4.08-.18,7.37-2.68,10.06-7.3,1.79,5.73,7.12,7.85,12.76,6.98,4.76-.73,8.77-5.09,8.8-10.72l.11-28.91,8.68-1.02c4.18-.49,5.56-4.64,4.62-8.1Z"/>
  <path d="M187.69,158.28c.94,3.46-.43,7.61-4.62,8.1l-8.68,1.02-.11,28.91c-.02,5.63-4.04,9.98-8.8,10.72-5.64.87-10.97-1.25-12.76-6.98-2.69,4.62-5.99,7.12-10.06,7.3-4.4.19-8.43-1.99-10.94-6.13-2.14,2.83-4.81,5.5-8.06,5.99-3.93.59-7.73-2.01-10.37-4.14-2.28,2.09-5.94,4.69-9.4,4.19s-6.46-2.87-8.16-5.86c-1.95,4.48-6.45,5.98-10.92,5.83-4.19-.14-8.21-2.46-11.14-7.14-3.07,5.41-8.55,8.2-14.5,6.87-5.65-1.26-10.42-6.12-10.44-12.71l-.12-50.12c-4.38.66-8.61.89-11.94-1.45-2.74-1.93-5.68-6.16-5.68-10.16v-38.93c0-13.91,10.62-25.07,24.21-27.03l12.17-1.75c-11.44-3.96-18.06-14.3-16.78-25.21,1.37-11.65,11.42-19.97,22.32-20.24,11.79-.29,21.68,8.38,23.4,19.11,1.88,11.73-4.85,22.52-16.72,26.37,16.51,2.13,23.2,1.79,33.85,15.67l12.22,4.49,7.49-6.05c-4.15-1.32-6.79-2.17-10.09-3.65,3.52-8.9,4.64-16.35,5.31-25.41.99-13.48,12.49-23.29,25.23-22.79,13.41.53,22.93,11.53,23.33,25.12.23,8.02,1.73,14.72,5.09,22.89-2.56,2.04-6.03,2.67-10.45,3.33,6.51,4.61,12.11,10.29,14.67,18.31,3.66,11.45,6.85,22.83,9.3,34.63,1.47,7.06-4.21,12.68-11.76,12.48l3.9,14.37ZM90.47,42.35c0-9.29-7.56-16.82-16.88-16.82s-16.88,7.53-16.88,16.82,7.56,16.82,16.88,16.82,16.88-7.53,16.88-16.82ZM170.4,49.19c-.98-9.39-8.49-15.99-17.63-16.15-8.94-.15-16.81,6.25-17.97,15.67,6.31-.65,10.7-3.4,14.69-7.7,4.62-4.99,7.22,7.56,20.91,8.18ZM165.84,54.53c-5.51-1.96-10.42-4.34-14.37-6.56-3.37,2.25-8.81,4.81-12.51,6.34-2.55,5.56,1.1,12.47,5.73,15.38,5.03,3.16,11.62,3.16,16.89-.94,3.27-2.55,6.73-10.22,4.27-14.22ZM138.96,73.61l-6.17-9.53-1.68,8.08,7.85,1.45ZM174.21,72.06l-2.32-8.28-5.69,9.42,8.01-1.13ZM76.29,143.01l2.48,51.92c.18,3.84,4.08,6.6,6.91,6.41,3.53-.24,6.88-2.83,6.9-6.79l.08-25.44c-4.84-.73-9.38-3.65-9.65-8.82-.45-8.43-.72-17.23.2-25.66,1.13-10.42,10.47-16.02,20.3-17.71-6.71-5.21-10.24-11.75-9.01-19.4,1.09-6.81,6.01-12.59,12.89-15.33-8.43-13.87-38.79-11.83-51.34-9.68-10.66,1.82-18.83,10.21-18.83,21.16v38.81c0,3.55,3.53,6.22,6.44,5.92,2.49-.26,5.02-2.89,5.02-5.93v-35.02c0-1.2,1.92-3.44,3.09-3.49s3.14,2.21,3.15,3.69l.06,96.97c0,4.39,4.23,6.87,7.76,6.57,3.32-.28,5.87-3.15,6.05-7.17l2.24-51.16c.06-1.28,1.93-2.93,2.79-2.95s2.43,1.86,2.49,3.1ZM166.95,107.65c-.38-1.32,1.59-3.95,2.66-3.76.89.16,3.09,1.46,3.4,2.56l8.36,29.93c.39,1.4,4.4,2.06,5.56,1.27s3.27-3.5,2.91-4.86l-8.46-31.38c-1.15-4.26-3.48-9.14-6.51-12.29-12.56-13.06-33.19-12.48-45.37.75,5.43,9.65,2.9,20.23-5.69,26.92,10.97,1.97,18.47,8.94,20.21,19.03l.15,26.22c12.78.19,24.43-.28,37.88-1.57l-15.1-52.82ZM126.4,100.45c0-7.2-5.86-13.03-13.08-13.03s-13.08,5.83-13.08,13.03,5.86,13.03,13.08,13.03,13.08-5.83,13.08-13.03ZM115.95,169.37l1.96,28.63c.14,1.98,3.21,3.97,4.76,3.72,1.68-.28,3.61-2.43,3.6-4.32l-.09-57.03c0-.98,1.67-2.86,2.61-2.97s3.01,1.75,3.03,2.73l.47,21.73c.02,1.09,3.26,1.51,3.87.87s1.86-2.39,1.86-3.41v-19.85c0-7.75-4.89-14.26-12.61-15.98-11.97-2.66-36.86-2.71-36.75,15.13l.14,20.89c0,.86,2.01,2.78,2.7,3.21s2.44-.49,3.02-1.29l.35-20.99c.02-1.05,1.81-3.05,2.75-2.9s2.66,2.01,2.66,3.06l.07,56.68c0,2.19,2.6,4.47,4.33,4.49,1.4.01,3.96-1.93,4.06-3.54l1.85-28.97c.07-1.11,2.25-2.88,3.14-2.53.66.26,2.17,1.92,2.22,2.65ZM147.11,195.95l1.75-27.97c-4.33-.44-8.03-.4-12.44.67l.14,28.64c.01,2.35,4.18,4.43,6.06,4.08,2.06-.37,4.3-2.61,4.48-5.43ZM168.29,196.03v-28.4s-11.97.38-11.97.38l1.54,29.14c.13,2.48,3.8,4.38,5.83,4.16,1.9-.2,4.6-2.68,4.6-5.28Z"/>
  <path class="cls-1" d="M76.29,143.01c-.06-1.24-1.63-3.13-2.49-3.1s-2.73,1.68-2.79,2.95l-2.24,51.16c-.18,4.02-2.73,6.89-6.05,7.17-3.53.3-7.75-2.18-7.76-6.57l-.06-96.97c0-1.49-1.98-3.74-3.15-3.69s-3.08,2.29-3.08,3.49v35.02c0,3.04-2.53,5.67-5.02,5.93-2.91.3-6.45-2.38-6.45-5.92v-38.81c0-10.95,8.17-19.34,18.83-21.16,12.55-2.15,42.92-4.19,51.34,9.68-6.88,2.74-11.8,8.52-12.89,15.33-1.22,7.66,2.3,14.2,9.01,19.4-9.84,1.69-19.17,7.29-20.3,17.71-.91,8.43-.64,17.23-.2,25.66.27,5.17,4.81,8.09,9.65,8.82l-.08,25.44c-.01,3.96-3.36,6.55-6.9,6.79-2.83.19-6.73-2.57-6.91-6.41l-2.48-51.92Z"/>
  <path class="cls-1" d="M166.95,107.65l15.1,52.82c-13.45,1.3-25.1,1.77-37.88,1.57l-.15-26.22c-1.74-10.09-9.24-17.06-20.21-19.03,8.59-6.69,11.11-17.26,5.69-26.92,12.18-13.23,32.82-13.81,45.37-.75,3.03,3.15,5.37,8.03,6.51,12.29l8.46,31.38c.37,1.36-1.75,4.07-2.91,4.86s-5.17.12-5.56-1.27l-8.36-29.93c-.31-1.1-2.51-2.4-3.4-2.56-1.07-.19-3.03,2.45-2.66,3.76Z"/>
  <path class="cls-1" d="M115.95,169.37c-.05-.72-1.56-2.38-2.22-2.65-.89-.35-3.07,1.43-3.14,2.53l-1.85,28.97c-.1,1.6-2.67,3.55-4.06,3.54-1.73-.02-4.33-2.3-4.33-4.49l-.07-56.68c0-1.05-1.72-2.91-2.66-3.06s-2.74,1.85-2.75,2.9l-.35,20.99c-.58.8-2.33,1.72-3.02,1.29s-2.69-2.34-2.7-3.21l-.14-20.89c-.12-17.84,24.78-17.79,36.75-15.13,7.72,1.72,12.61,8.22,12.61,15.98v19.85c0,1.02-1.25,2.78-1.85,3.41s-3.84.22-3.87-.87l-.47-21.73c-.02-.99-2.09-2.85-3.03-2.73s-2.61,2-2.61,2.97l.09,57.03c0,1.88-1.92,4.04-3.6,4.32-1.54.25-4.62-1.74-4.76-3.72l-1.96-28.63Z"/>
  <ellipse class="cls-1" cx="73.59" cy="42.35" rx="16.88" ry="16.82"/>
  <ellipse class="cls-1" cx="113.32" cy="100.45" rx="13.08" ry="13.03"/>
  <path class="cls-1" d="M165.84,54.53c2.46,4-1,11.68-4.27,14.22-5.27,4.1-11.86,4.09-16.89.94-4.64-2.91-8.28-9.82-5.73-15.38,3.7-1.53,9.14-4.08,12.51-6.34,3.96,2.22,8.87,4.59,14.37,6.56Z"/>
  <path class="cls-1" d="M147.11,195.95c-.18,2.82-2.42,5.05-4.48,5.43-1.88.34-6.05-1.74-6.06-4.08l-.14-28.64c4.41-1.07,8.11-1.11,12.44-.67l-1.75,27.97Z"/>
  <path class="cls-1" d="M168.29,196.03c0,2.6-2.7,5.08-4.6,5.28-2.03.22-5.7-1.68-5.83-4.16l-1.54-29.14,11.98-.38v28.4Z"/>
  <path class="cls-1" d="M170.4,49.19c-13.68-.62-16.28-13.17-20.91-8.18-3.99,4.3-8.38,7.05-14.69,7.7,1.15-9.42,9.02-15.82,17.97-15.67,9.15.16,16.65,6.76,17.63,16.15Z"/>
  <polygon class="cls-1" points="138.96 73.61 131.11 72.16 132.79 64.08 138.96 73.61"/>
  <polygon class="cls-1" points="174.21 72.06 166.2 73.19 171.89 63.77 174.21 72.06"/>
</svg>