<?xml version="1.0" encoding="UTF-8"?>
<svg id="Layer_1" data-name="Layer 1" xmlns="http://www.w3.org/2000/svg" viewBox="0 0 226.77 226.77">
  <defs>
    <style>
      .cls-1 {
        fill: none;
      }
    </style>
  </defs>
  <path class="cls-1" d="M101.71,114.89l1.55-9.34c8.9,4.01,9.91,13.41,14.49,13.29,3.11-.08,4.09-10.32,4.56-13.54,1.54-10.67-3.22-19.73-10.95-26.6,2.07-22.7-5.98-44.2-22.02-60.78-16.36,16.68-24.19,38.76-21.81,61.28-13.74,11.3-12.45,21.9-9.28,36.82.21.99,2.06,2.85,2.94,2.97,3.38.46,6.71-9.73,13.96-14.01l2.16,10.01,24.4-.1ZM157.92,68.28c1.18-4.58,6.75,1.45,8.6.16s7.8-6.2,6.97-8.27l-2.35-5.88,7.04-2.16-.1-11.68-7.09-2.83,2.6-6.41c-1.56-3.05-4.88-6.49-7.91-8.01l-6.55,3.07-2.61-7.3-11.73.2-1.93,6.98-7.62-3.16-7.32,7.93,3.12,6.63-7.19,2.78c-.28,3.97-.2,8.3.43,11.68l6.79,2.53-3.08,5.95c2.24,3.18,5.47,7.55,8.88,7.93,2-.82,5.61-2.59,6.22-1.19.96,2.2,1.49,4.7,2.69,5.46,1.03.66,4.18.94,5.49.79l4.81-.53c1.01-.11,1.53-3.42,1.85-4.68ZM141.21,79.2c-4.59,1.74-8.86,3.61-12.73,5.89l.16,26.76,22.5,10,22.27-9.73v-27.44s-11.96-5.75-11.96-5.75c-1.32-.63-4.02.77-5.32,2.59l7.52,4.88-12.45,5.81-13.2-5.99,8.63-4.25-5.41-2.77ZM62.02,164.09c.84,1.06,3.99.88,4.51-.08.44-.8.47-3.06-.24-3.96l-17.96-22.7c-1.32-1.67-.57-5.36.88-6.48,7.15-5.57,15.59,14.64,30.89,22.63,11.34,5.92,18.48,17.66,18.65,30.6l.25,19.87c.02,1.34,1.79,3.41,2.89,3.5s3-2.15,2.98-3.52c-.11-7.44.1-15.25-.44-22.87-1.05-14.81-9.84-26.92-22.67-33.44-3.8-1.93-6.96-4.86-9.77-7.83l-11.8-12.47c-2.92-3.09-7.39-3.59-12.25-2.99l-5.35-28.9c-1-5.4-7.04-8.63-11.54-8.03s-8.64,4.77-8.5,10.02c.86,32.64-.74,27.3,7.13,58.31,1.27,5.01,4.52,10.03,8.07,13.78l19.49,20.61c8.79,9.3,3.35,14.47,6.75,17.86,4.49,4.47,8.85-10.02-2-21.44l-20.05-21.11c-3.12-3.28-5.84-7.4-6.82-11.88-8.12-37.38-4.71-17.01-6.76-55.38-.11-2,1.95-4.75,3.74-5.14,1.52-.33,4.64,1.95,4.94,3.68,1.9,10.93,4.32,21.62,5.25,32.39.48,5.54-.89,9.03,3.11,14.06l16.63,20.89ZM182.42,141.84c3.58-4.56,1.87-8.06,2.25-12.73.91-10.95,3.23-21.41,5.16-32.4.29-1.66,3.61-3.6,5.11-3.38s3.53,2.91,3.45,4.88c-1.45,35.06,1.63,20.88-6.63,55.63-.89,3.73-3.32,7.89-5.97,10.7l-20.34,21.56c-9.37,9.93-9.11,23.27-3.69,22.41,4.29-.68,1.15-10.79,4.55-14.44l23.68-25.42c3.94-4.22,6.73-9.45,7.96-15.1,1.7-7.85,4.25-15.45,5.08-23.42,1.15-10.94,1.09-21.74,1.2-32.66.06-5.63-4.54-9.79-9.58-10.02-4.02-.18-9.54,3.07-10.45,8.1l-5.21,28.73c-14.53-3.11-19.26,15.6-34.6,23.91-12.37,6.7-20.99,18.47-21.97,32.89-.53,7.77-.39,14.89-.52,23.13-.02,1.21,1.86,3.39,3.02,3.37,9.79-.18-9.06-37.62,22.36-54.32,15.36-8.17,24.09-29.57,30.92-22.09.99,1.09,1.19,4.92.17,6.23l-17.86,23.05c-.68.88-.36,3.71.54,4.21s3.37.03,4.02-.79l17.33-22.05ZM95.89,117.83c-4.4-.15,0,8.1-6.42,14.5-5.78-3.02-2.82-19.42-7.68-14.37-6.58,6.83,4.93,22.95,7.95,22.43,4.61-.79,14.36-22.28,6.14-22.55Z"/>
  <path d="M101.71,114.89l-24.4.1-2.16-10.01c-7.25,4.28-10.58,14.47-13.96,14.01-.88-.12-2.73-1.98-2.94-2.97-3.17-14.93-4.46-25.52,9.28-36.82-2.38-22.53,5.45-44.61,21.81-61.28,16.04,16.58,24.09,38.08,22.02,60.78,7.73,6.88,12.49,15.94,10.95,26.6-.46,3.21-1.45,13.46-4.56,13.54-4.58.12-5.59-9.29-14.49-13.29l-1.55,9.34ZM98.15,39.85c-3.1-5.82-5.05-8.86-8.87-13.81-3.81,5.16-5.98,8.62-8.4,13.89l17.27-.08ZM100.16,100.07c7.39-18.26,7.91-36.53.69-54.34l-23.01-.08c-7.32,18.05-6.45,36.65.82,54.48l21.51-.05ZM72.35,99.99l-4.24-13.9c-6.58,6.11-7.39,15.41-5.5,23.11l9.74-9.21ZM115.92,109.11c2.16-8.92.89-17.34-5.47-23.01l-3.94,14.06,9.41,8.95ZM97,105.78l-15.31.07v3.43s15.32-.07,15.32-.07v-3.43Z"/>
  <path d="M182.42,141.84l-17.33,22.05c-.65.83-3.13,1.29-4.02.79s-1.22-3.33-.54-4.21l17.86-23.05c1.01-1.31.82-5.14-.17-6.23-6.83-7.48-15.56,13.92-30.92,22.09-31.42,16.7-12.57,54.14-22.36,54.32-1.16.02-3.04-2.16-3.02-3.37.13-8.24,0-15.36.52-23.13.97-14.42,9.6-26.19,21.97-32.89,15.34-8.31,20.07-27.02,34.6-23.91l5.21-28.73c.91-5.03,6.43-8.29,10.45-8.1,5.04.23,9.63,4.39,9.58,10.02-.11,10.92-.05,21.72-1.2,32.66-.83,7.97-3.39,15.57-5.08,23.42-1.22,5.65-4.02,10.87-7.96,15.1l-23.68,25.42c-3.4,3.65-.26,13.75-4.55,14.44-5.41.86-5.68-12.47,3.69-22.41l20.34-21.56c2.65-2.81,5.08-6.97,5.97-10.7,8.26-34.75,5.18-20.57,6.63-55.63.08-1.97-1.88-4.66-3.45-4.88s-4.82,1.72-5.11,3.38c-1.92,10.99-4.25,21.45-5.16,32.4-.39,4.67,1.33,8.17-2.25,12.73Z"/>
  <path d="M62.02,164.09l-16.63-20.89c-4-5.03-2.64-8.52-3.11-14.06-.93-10.77-3.35-21.45-5.25-32.39-.3-1.73-3.43-4.01-4.94-3.68-1.8.39-3.85,3.14-3.74,5.14,2.05,38.37-1.35,18,6.76,55.38.97,4.48,3.7,8.6,6.82,11.88l20.05,21.11c10.85,11.42,6.49,25.91,2,21.44-3.41-3.39,2.04-8.57-6.75-17.86l-19.49-20.61c-3.55-3.75-6.79-8.76-8.07-13.78-7.86-31.01-6.26-25.67-7.13-58.31-.14-5.25,4.12-9.44,8.5-10.02s10.54,2.63,11.54,8.03l5.35,28.9c4.86-.6,9.33-.1,12.25,2.99l11.8,12.47c2.81,2.97,5.97,5.89,9.77,7.83,12.84,6.52,21.63,18.63,22.67,33.44.54,7.61.33,15.42.44,22.87.02,1.37-1.87,3.61-2.98,3.52s-2.88-2.17-2.89-3.5l-.25-19.87c-.16-12.94-7.3-24.68-18.65-30.6-15.3-7.98-23.74-28.2-30.89-22.63-1.45,1.13-2.2,4.82-.88,6.48l17.96,22.7c.71.9.68,3.15.24,3.96-.52.96-3.67,1.14-4.51.08Z"/>
  <path d="M157.92,68.28c-.33,1.26-.84,4.57-1.85,4.68l-4.81.53c-1.31.14-4.46-.14-5.49-.79-1.2-.77-1.73-3.26-2.69-5.46-.61-1.4-4.22.37-6.22,1.19-3.4-.37-6.63-4.74-8.88-7.93l3.08-5.95-6.79-2.53c-.63-3.38-.71-7.71-.43-11.68l7.19-2.78-3.12-6.63,7.32-7.93,7.62,3.16,1.93-6.98,11.73-.2,2.61,7.3,6.55-3.07c3.03,1.51,6.35,4.96,7.91,8.01l-2.6,6.41,7.09,2.83.1,11.68-7.04,2.16,2.35,5.88c.83,2.07-5.07,6.94-6.97,8.27s-7.42-4.74-8.6-.16ZM153.72,63.8c.97-2.5,6.75-4.26,9.03-3.19l2.87,1.35c.6.28,1.81-1.48,1.51-2.06l-1.19-2.26c-1.67-3.18.48-8.69,4.49-9.32,1.09-.17,2.56-1.46,2.57-2.31.06-4.04-4.87.86-7.47-7.51-.52-1.68.6-4.87,1.46-7.07-.16-.66-2.13-2.05-2.79-1.53-.53.42-1.9,2.11-2.57,2.16-2.36.17-7.56-2.01-8.31-4.23l-1.14-3.37c-.22-.65-2.49-.08-2.78.29-.56,1.94-2,5.08-3.71,5.85-7.56,3.39-9.62-3.22-10.63.06-.2.65.07,2.36.44,2.98,2.02,3.27.39,8.59-3.34,9.85-1.37.46-3.61,1.55-3.22,2.49.31.75,1.8,1.66,3.1,2.19,2.94,1.19,5.21,6.53,3.89,9.46-.63,1.4-1.35,2.84-.89,3.46,2.23,3.01,1.99-2.7,8.8-.4,3.38,1.14,5.02,3.47,5.44,6.83.4.24,2.68.8,2.93.15l1.51-3.87Z"/>
  <path d="M141.21,79.2l5.41,2.77-8.63,4.25,13.2,5.99,12.45-5.81-7.52-4.88c1.29-1.82,4-3.23,5.32-2.59l11.97,5.75v27.44s-22.28,9.73-22.28,9.73l-22.5-10-.16-26.76c3.88-2.29,8.14-4.16,12.73-5.89ZM148.17,114.91v-18.05s-14.21-6.01-14.21-6.01l-.18,17.25,14.39,6.81ZM153.62,114.71l14.38-6.03-.02-18.03-14.26,6.34-.11,17.72Z"/>
  <path d="M95.89,117.83c8.22.28-1.53,21.76-6.14,22.55-3.02.52-14.53-15.59-7.95-22.43,4.86-5.05,1.89,11.35,7.68,14.37,6.42-6.39,2.02-14.64,6.42-14.5Z"/>
  <path class="cls-1" d="M100.16,100.07l-21.51.05c-7.27-17.83-8.14-36.43-.82-54.48l23.01.08c7.22,17.81,6.7,36.08-.69,54.34ZM100.13,64.95c0-5.94-4.83-10.76-10.8-10.76s-10.8,4.82-10.8,10.76,4.83,10.76,10.8,10.76,10.8-4.82,10.8-10.76Z"/>
  <path class="cls-1" d="M72.35,99.99l-9.74,9.21c-1.89-7.69-1.09-16.99,5.5-23.11l4.24,13.9Z"/>
  <path class="cls-1" d="M98.15,39.85l-17.27.08c2.42-5.27,4.59-8.72,8.4-13.89,3.82,4.95,5.77,7.99,8.87,13.81Z"/>
  <path class="cls-1" d="M115.92,109.11l-9.41-8.95,3.94-14.06c6.36,5.66,7.63,14.09,5.47,23.01Z"/>
  <rect class="cls-1" x="81.7" y="105.81" width="15.31" height="3.43" transform="translate(-.46 .39) rotate(-.25)"/>
  <path class="cls-1" d="M153.72,63.8l-1.51,3.87c-.25.65-2.53.09-2.93-.15-.43-3.35-2.06-5.68-5.44-6.83-6.8-2.3-6.57,3.42-8.8.4-.46-.62.26-2.06.89-3.46,1.32-2.93-.95-8.27-3.89-9.46-1.31-.53-2.79-1.44-3.1-2.19-.39-.94,1.85-2.03,3.22-2.49,3.73-1.26,5.35-6.57,3.34-9.85-.38-.61-.64-2.33-.44-2.98,1-3.28,3.07,3.33,10.63-.06,1.71-.77,3.16-3.91,3.71-5.85.29-.37,2.56-.94,2.78-.29l1.14,3.37c.75,2.22,5.95,4.4,8.31,4.23.67-.05,2.05-1.74,2.57-2.16.66-.52,2.64.87,2.79,1.53-.87,2.19-1.98,5.39-1.46,7.07,2.6,8.37,7.53,3.48,7.47,7.51-.01.85-1.48,2.14-2.57,2.31-4.01.63-6.16,6.15-4.49,9.32l1.19,2.26c.3.58-.91,2.34-1.51,2.06l-2.87-1.35c-2.27-1.07-8.05.69-9.03,3.19ZM162.12,46.11c0-6.18-5.03-11.19-11.23-11.19s-11.23,5.01-11.23,11.19,5.03,11.19,11.23,11.19,11.23-5.01,11.23-11.19Z"/>
  <polygon class="cls-1" points="148.17 114.91 133.78 108.1 133.97 90.85 148.17 96.86 148.17 114.91"/>
  <polygon class="cls-1" points="153.62 114.71 153.73 96.99 167.98 90.66 168 108.68 153.62 114.71"/>
  <path d="M100.13,64.95c0,5.94-4.83,10.76-10.8,10.76s-10.8-4.82-10.8-10.76,4.83-10.76,10.8-10.76,10.8,4.82,10.8,10.76ZM94.49,64.89c0-2.85-2.32-5.16-5.18-5.16s-5.18,2.31-5.18,5.16,2.32,5.16,5.18,5.16,5.18-2.31,5.18-5.16Z"/>
  <path d="M162.12,46.11c0,6.18-5.03,11.19-11.23,11.19s-11.23-5.01-11.23-11.19,5.03-11.19,11.23-11.19,11.23,5.01,11.23,11.19ZM156.73,46.1c0-3.24-2.64-5.87-5.89-5.87s-5.89,2.63-5.89,5.87,2.64,5.87,5.89,5.87,5.89-2.63,5.89-5.87Z"/>
  <ellipse class="cls-1" cx="89.31" cy="64.89" rx="5.18" ry="5.16"/>
  <ellipse class="cls-1" cx="150.84" cy="46.1" rx="5.89" ry="5.87"/>
</svg>