<?xml version="1.0" encoding="UTF-8"?>
<svg id="Layer_1" data-name="Layer 1" xmlns="http://www.w3.org/2000/svg" viewBox="0 0 226.77 226.77">
  <defs>
    <style>
      .cls-1 {
        fill: none;
      }
    </style>
  </defs>
  <path class="cls-1" d="M129.17,63.41c12.26,7.56,4.52,22.78,10.86,22.23,1.33-.12,2.7-2.36,2.83-3.9,1.23-15.44-8.56-26.82-24.76-28.26,9.33-3.12,14.11-11.43,12.2-20.87-1.58-7.75-9.31-13.97-17.95-13.45-8.39.51-15.71,6.82-16.64,15.33-.94,8.63,4.25,16.29,13.15,19.03-16.24,1.03-26.13,12.71-25.43,28.19.05,1.21.85,3.3,1.76,3.81.73.41,2.87.28,3.42-.35,2.44-2.77-1.3-14.5,6.94-20.5,9.48-6.9,23.28-7.65,33.63-1.27ZM85.25,47.36c1.07-.48,2.15-2.79,1.75-3.8s-3.08-2.24-4.35-1.64c-12.66,5.89-24.53,15.33-32.47,27.67-.76,1.17.11,4.06,1.24,4.5,5.22,2.02,8.54-15.33,33.83-26.73ZM171.39,72.66c.88,1.25,3.09,2.16,4,1.44.75-.6,1.64-3.54,1.13-4.34-7.97-12.47-19.49-22.24-33.17-28.12-.95-.41-3.59.71-3.9,1.66s.67,3.37,1.59,3.78c12.65,5.65,22.49,14.34,30.34,25.58ZM101.62,85.95v-10.41c0-1.13-2.34-3.07-3.44-2.85-.91.18-2.54,1.93-2.55,2.92l-.04,9.82c0,1.08,1.63,2.88,2.54,3.2s3.49-1.41,3.49-2.68ZM130.79,85.34l-.16-9.87c-.02-1.17-2.29-3.23-3.39-2.92-.91.26-2.55,2.09-2.54,3.05l.14,10.62c.01,1.04,2.28,2.61,3.25,2.53s2.71-2.24,2.69-3.41ZM70.19,125.2c10.2,6.93,3.43,22.25,9.86,21.36,1.71-.24,2.6-2.39,2.7-4.08.94-15.69-9-27.07-25.14-27.74,9.54-3.56,14.52-11.3,12.64-20.34-1.65-7.93-8.99-14.62-18.07-14.18-7.92.39-15.45,6.74-16.62,15.68-1.01,7.76,4.1,15.06,12.14,18.79-15.76,1.41-25.36,12.61-24.26,27.79.09,1.19.85,3.23,1.72,3.75.7.42,2.82.31,3.29-.36,2.38-3.45-1.05-15.52,8.37-21.29,9.73-5.97,23.51-6.1,33.38.61ZM183.83,121.59c20.25,5.64,9.15,27.15,17.13,24.8,1.25-.37,2.34-2.38,2.42-3.92.82-15.31-8.66-26.58-24.08-27.79,8.8-3.84,13.17-12.05,11.61-19.99-1.7-8.67-8.88-14.43-17-14.44-9.03-.02-16.28,6.21-17.71,14.74-1.43,8.51,3.55,15.55,11.74,19.75-15.87,1.64-24.93,12.86-24.16,27.8.1,1.89,1.55,3.93,3.28,4,6.42.24-3.15-20.34,17.45-25.08,5.95-1.37,12.99-1.63,19.32.13ZM41.63,146.36l-.12-9.98c-.01-1.2-2.28-2.99-3.34-2.82-.88.15-2.73,1.9-2.71,2.86l.29,11.52c.03,1.02,3.34,2.23,4.15,1.57.65-.53,1.74-2.24,1.73-3.16ZM70.65,146.05l-.04-8.9c0-1.21-1.42-3.33-2.49-3.52s-3.56,1.67-3.54,2.79l.16,10.55c.02,1.13,2.27,2.96,3.33,2.87s2.58-2.46,2.57-3.79ZM162,146.5l-.08-10.23c0-.99-1.99-2.85-2.97-2.92s-2.91,1.87-2.92,2.96l-.05,10.2c0,1.13,1.94,3.19,3.02,3.22s3.02-2.1,3.01-3.22ZM191.27,146.8l-.22-10.74c-.02-1.02-2.11-2.8-3.02-2.57s-2.6,2.04-2.61,3.04l-.13,9.87c-.02,1.19,1.58,3.3,2.64,3.45s3.36-1.88,3.33-3.05ZM124.84,180.08c17.72,5.82,8.63,24.41,14.94,24.14,5.48-.23,3.74-17.11-3.97-24.41-4.8-4.55-11.18-6.4-17.53-7.23,9.07-3.72,13.79-11.65,12.11-20.7-1.49-8.04-9.25-14.64-18.23-14-8.36.59-15.72,6.91-16.46,15.99-.69,8.44,4.22,15.66,13.36,19.03-15.85.29-25.89,11.3-25.58,26.32.02,1.18.55,3.26,1.18,4.04s3.27,1.11,3.83.28c2.52-3.78-1.58-18.65,12.98-23.35,7.52-2.43,15.72-2.62,23.36-.11ZM55.08,155.52c-.66-.95-3.4-1.48-4.32-.79-.77.58-1.25,3.09-.56,4.11,6.4,9.55,16.05,19.11,26.09,24.49,1.18.63,4.17-.68,4.31-1.73.56-4.2-13.47-8.73-25.52-26.09ZM174.93,154.18c-5.22.31-9.13,13.76-27.45,23.8-1.3.71-2.09,3.38-1.41,4.34,5.29,7.44,40.1-28.81,28.86-28.14ZM101.46,205.24l.17-11.32c.02-1.06-2.39-2.93-3.39-2.58-.84.29-2.47,1.95-2.47,2.96l-.07,9.84c0,1.04,1.38,2.78,2.28,3.28.73.41,3.47-1.14,3.49-2.18ZM130.72,204.29l-.19-10.09c-.02-1.12-2.11-3.03-3.13-2.78-.85.21-2.72,1.95-2.71,2.87l.06,10.48c0,1.12,2.27,2.99,3.33,2.87s2.66-2.25,2.64-3.35Z"/>
  <path d="M70.19,125.2c-9.87-6.71-23.65-6.58-33.38-.61-9.41,5.77-5.99,17.83-8.37,21.29-.46.67-2.59.78-3.29.36-.87-.52-1.64-2.56-1.72-3.75-1.1-15.18,8.5-26.38,24.26-27.79-8.04-3.74-13.15-11.04-12.14-18.79,1.17-8.95,8.7-15.3,16.62-15.68,9.09-.44,16.42,6.25,18.07,14.18,1.88,9.03-3.11,16.78-12.64,20.34,16.14.67,26.08,12.05,25.14,27.74-.1,1.68-.99,3.84-2.7,4.08-6.42.89.34-14.43-9.86-21.36ZM64.5,97.66c0-6.28-5.11-11.38-11.42-11.38s-11.42,5.09-11.42,11.38,5.11,11.38,11.42,11.38,11.42-5.09,11.42-11.38Z"/>
  <path d="M183.83,121.59c-6.33-1.76-13.37-1.5-19.32-.13-20.6,4.74-11.03,25.32-17.45,25.08-1.72-.06-3.18-2.11-3.28-4-.77-14.95,8.29-26.16,24.16-27.8-8.2-4.21-13.18-11.24-11.74-19.75,1.44-8.53,8.69-14.75,17.71-14.74,8.11.02,15.29,5.78,17,14.44,1.56,7.94-2.81,16.15-11.61,19.99,15.42,1.21,24.9,12.48,24.08,27.79-.08,1.54-1.17,3.55-2.42,3.92-7.98,2.35,3.12-19.16-17.13-24.8ZM185.12,97.74c0-6.3-5.13-11.41-11.45-11.41s-11.45,5.11-11.45,11.41,5.13,11.41,11.45,11.41,11.45-5.11,11.45-11.41Z"/>
  <path d="M124.84,180.08c-7.65-2.51-15.84-2.32-23.36.11-14.56,4.7-10.46,19.58-12.98,23.35-.56.84-3.2.51-3.83-.28s-1.15-2.87-1.18-4.04c-.32-15.02,9.72-26.03,25.58-26.32-9.13-3.38-14.05-10.6-13.36-19.03.74-9.08,8.1-15.4,16.46-15.99,8.98-.63,16.74,5.97,18.23,14,1.68,9.05-3.05,16.98-12.11,20.7,6.36.83,12.73,2.68,17.53,7.23,7.71,7.3,9.45,24.18,3.97,24.41-6.31.27,2.78-18.32-14.94-24.14ZM124.81,155.28c0-6.35-5.17-11.51-11.55-11.51s-11.55,5.15-11.55,11.51,5.17,11.51,11.55,11.51,11.55-5.15,11.55-11.51Z"/>
  <path d="M129.17,63.41c-10.35-6.39-24.15-5.63-33.63,1.27-8.24,6-4.5,17.73-6.94,20.5-.55.63-2.69.76-3.42.35-.91-.51-1.71-2.6-1.76-3.81-.7-15.48,9.19-27.16,25.43-28.19-8.9-2.73-14.09-10.4-13.15-19.03.93-8.51,8.25-14.82,16.64-15.33,8.64-.53,16.37,5.69,17.95,13.45,1.92,9.44-2.87,17.75-12.2,20.87,16.2,1.44,25.99,12.82,24.76,28.26-.12,1.54-1.49,3.78-2.83,3.9-6.34.55,1.4-14.67-10.86-22.23ZM124.78,36.58c0-6.35-5.16-11.49-11.54-11.49s-11.54,5.15-11.54,11.49,5.16,11.49,11.54,11.49,11.54-5.15,11.54-11.49Z"/>
  <path d="M171.39,72.66c-7.86-11.25-17.69-19.94-30.34-25.58-.92-.41-1.9-2.83-1.59-3.78s2.95-2.07,3.9-1.66c13.68,5.88,25.2,15.65,33.17,28.12.51.8-.38,3.74-1.13,4.34-.91.72-3.12-.19-4-1.44Z"/>
  <path d="M85.25,47.36c-25.29,11.39-28.61,28.75-33.83,26.73-1.13-.44-1.99-3.32-1.24-4.5,7.94-12.34,19.81-21.78,32.47-27.67,1.27-.59,3.96.63,4.35,1.64s-.68,3.31-1.75,3.8Z"/>
  <path d="M174.93,154.18c11.24-.66-23.57,35.58-28.86,28.14-.68-.95.12-3.63,1.41-4.34,18.32-10.04,22.23-23.5,27.45-23.8Z"/>
  <path d="M55.08,155.52c12.05,17.36,26.08,21.9,25.52,26.09-.14,1.05-3.14,2.36-4.31,1.73-10.04-5.38-19.69-14.94-26.09-24.49-.69-1.03-.21-3.53.56-4.11.92-.7,3.66-.16,4.32.79Z"/>
  <path d="M41.63,146.36c.01.92-1.08,2.63-1.73,3.16-.81.66-4.12-.55-4.15-1.57l-.29-11.52c-.02-.95,1.83-2.71,2.71-2.86,1.06-.18,3.32,1.62,3.34,2.82l.12,9.98Z"/>
  <path d="M101.46,205.24c-.02,1.03-2.76,2.58-3.49,2.18-.9-.5-2.29-2.24-2.28-3.28l.07-9.84c0-1.02,1.63-2.67,2.47-2.96,1.01-.35,3.41,1.52,3.39,2.58l-.17,11.32Z"/>
  <path d="M130.79,85.34c.02,1.16-1.72,3.32-2.69,3.41s-3.24-1.49-3.25-2.53l-.14-10.62c-.01-.96,1.63-2.79,2.54-3.05,1.09-.31,3.37,1.75,3.39,2.92l.16,9.87Z"/>
  <path d="M191.27,146.8c.02,1.16-2.27,3.2-3.33,3.05s-2.66-2.26-2.64-3.45l.13-9.87c.01-.99,1.71-2.81,2.61-3.04s2.99,1.55,3.02,2.57l.22,10.74Z"/>
  <path d="M101.62,85.95c0,1.27-2.58,3-3.49,2.68s-2.54-2.13-2.54-3.2l.04-9.82c0-1,1.63-2.74,2.55-2.92,1.1-.22,3.44,1.73,3.44,2.85v10.41Z"/>
  <path d="M70.65,146.05c0,1.32-1.51,3.69-2.57,3.79s-3.32-1.74-3.33-2.87l-.16-10.55c-.02-1.12,2.48-2.99,3.54-2.79s2.48,2.32,2.49,3.52l.04,8.9Z"/>
  <path d="M130.72,204.29c.02,1.1-1.58,3.23-2.64,3.35s-3.32-1.75-3.33-2.87l-.06-10.48c0-.93,1.86-2.66,2.71-2.87,1.02-.25,3.11,1.66,3.13,2.78l.19,10.09Z"/>
  <path d="M162,146.5c0,1.13-1.93,3.26-3.01,3.22s-3.03-2.09-3.02-3.22l.05-10.2c0-1.09,1.94-3.02,2.92-2.96s2.96,1.93,2.97,2.92l.08,10.23Z"/>
  <ellipse class="cls-1" cx="53.08" cy="97.66" rx="11.42" ry="11.38"/>
  <ellipse class="cls-1" cx="173.67" cy="97.74" rx="11.45" ry="11.41"/>
  <ellipse class="cls-1" cx="113.26" cy="155.28" rx="11.55" ry="11.51"/>
  <ellipse class="cls-1" cx="113.25" cy="36.58" rx="11.54" ry="11.49"/>
</svg>