<svg preserveAspectRatio="none" width="100%" height="100%" overflow="visible" style="display: block;" viewBox="0 0 13.3145 13.3362" fill="none" xmlns="http://www.w3.org/2000/svg">
<path id="Icon" d="M8.00815 3.16675C8.53721 3.26998 9.02344 3.52873 9.4046 3.90989C9.78576 4.29105 10.0445 4.77727 10.1477 5.30634M8.00815 1.00009C9.10734 1.1222 10.1323 1.61443 10.9149 2.39597C11.6974 3.1775 12.1909 4.20188 12.3144 5.30092M11.7727 9.62342V11.2484C11.7733 11.3993 11.7424 11.5486 11.682 11.6868C11.6216 11.825 11.5329 11.9491 11.4218 12.0511C11.3106 12.1531 11.1794 12.2307 11.0365 12.2791C10.8936 12.3274 10.7421 12.3453 10.5919 12.3318C8.9251 12.1506 7.32402 11.5811 5.91731 10.6688C4.60855 9.8372 3.49895 8.7276 2.66731 7.41884C1.75188 6.00574 1.18219 4.39688 1.0044 2.72259C0.990861 2.5728 1.00866 2.42183 1.05667 2.2793C1.10467 2.13677 1.18183 2.00579 1.28323 1.89472C1.38463 1.78364 1.50804 1.69489 1.64562 1.63412C1.78319 1.57335 1.93191 1.5419 2.08231 1.54175H3.70731C3.97019 1.53917 4.22503 1.63226 4.42435 1.80367C4.62367 1.97508 4.75386 2.21312 4.79065 2.47342C4.85923 2.99346 4.98643 3.50407 5.16981 3.9955C5.24269 4.18938 5.25846 4.40008 5.21526 4.60265C5.17206 4.80521 5.0717 4.99115 4.92606 5.13842L4.23815 5.82634C5.00924 7.18242 6.13206 8.30525 7.48815 9.07634L8.17606 8.38842C8.32334 8.24279 8.50927 8.14242 8.71184 8.09922C8.9144 8.05602 9.1251 8.07179 9.31898 8.14467C9.81042 8.32805 10.321 8.45525 10.8411 8.52384C11.1042 8.56096 11.3445 8.69349 11.5163 8.89623C11.688 9.09897 11.7793 9.35777 11.7727 9.62342Z" stroke="var(--stroke-0, #7B1FBA)" stroke-width="2" stroke-linecap="round" stroke-linejoin="round"/>
</svg>
