<svg preserveAspectRatio="none" width="100%" height="100%" overflow="visible" style="display: block;" viewBox="0 0 32 32" fill="none" xmlns="http://www.w3.org/2000/svg">
<g id="iconmonstr-flask-21 1">
<path id="Vector" d="M27.6787 27.3307L22.688 16.856C21.3 13.9413 20 10.748 20 7.51333V4H17.3333C17.3333 8.52133 17.2227 10.9173 20.28 18.0027L25.2707 28.4747C25.4613 28.8773 25.18 29.3333 24.768 29.3333H23.1067L16.6 16H12.6213C15.0147 10.4227 14.6587 8.04933 14.6667 4H12V7.51333C12 10.748 10.7 13.94 9.312 16.8547L4.32133 27.3293C4.10133 27.7933 4 28.2733 4 28.74C4 30.4507 5.364 32 7.23067 32H24.768C26.6347 32 28 30.4507 28 28.7387C28 28.272 27.8987 27.7933 27.6787 27.3307ZM10 29.3333C8.89467 29.3333 8 28.4387 8 27.3333C8 26.228 8.89467 25.3333 10 25.3333C11.1053 25.3333 12 26.228 12 27.3333C12 28.4387 11.1053 29.3333 10 29.3333ZM13.3333 24C12.596 24 12 23.404 12 22.6667C12 21.9293 12.596 21.3333 13.3333 21.3333C14.0693 21.3333 14.6667 21.9293 14.6667 22.6667C14.6667 23.404 14.0693 24 13.3333 24ZM17.3333 28C16.5973 28 16 27.4027 16 26.6667C16 25.9307 16.5973 25.3333 17.3333 25.3333C18.0693 25.3333 18.6667 25.9307 18.6667 26.6667C18.6667 27.4027 18.0693 28 17.3333 28ZM10.6667 1.33333C10.6667 0.597333 11.264 0 12 0H20C20.7373 0 21.3333 0.597333 21.3333 1.33333C21.3333 2.06933 20.7373 2.66667 20 2.66667H12C11.264 2.66667 10.6667 2.06933 10.6667 1.33333Z" fill="var(--fill-0, #7B1FBA)"/>
</g>
</svg>
