<svg preserveAspectRatio="none" width="100%" height="100%" overflow="visible" style="display: block;" viewBox="0 0 32 32" fill="none" xmlns="http://www.w3.org/2000/svg">
<g id="iconmonstr-idea-13 1" clip-path="url(#clip0_0_19)">
<path id="Vector" fill-rule="evenodd" clip-rule="evenodd" d="M8.96 27.3227C11.0027 28.5973 13.416 29.3333 16 29.3333C18.5787 29.3333 20.988 28.6 23.0293 27.3293L24.6827 29.4387C22.1813 31.0587 19.2 32 16 32C12.796 32 9.81067 31.056 7.30667 29.432L8.96 27.3227ZM17.5 26L16.708 26.5213C16.6053 26.6133 16.4547 26.6667 16.2987 26.6667H15.7027C15.5453 26.6667 15.3947 26.6133 15.292 26.5213L14.5 26H17.5ZM32 25.3333H24C24 23.86 25.1933 22.6667 26.6667 22.6667H29.3333C30.04 22.6667 30.7187 22.948 31.2187 23.448C31.7187 23.948 32 24.6253 32 25.3333ZM8 25.3333H0C0 23.86 1.19333 22.6667 2.66667 22.6667H5.33333C6.04 22.6667 6.71867 22.948 7.21867 23.448C7.71867 23.948 8 24.6253 8 25.3333ZM17.528 24.6667C17.712 24.6667 17.8613 24.816 17.8613 25C17.8613 25.184 17.712 25.3333 17.528 25.3333H14.4893C14.3053 25.3333 14.156 25.184 14.156 25C14.156 24.816 14.3053 24.6667 14.4893 24.6667H17.528ZM17.8573 24C17.8573 21.3307 20 20.2267 20 17.848C20 15.368 17.9987 14 15.9987 14C13.9987 14 12 15.3653 12 17.848C12 20.2267 14.1427 21.3667 14.1427 24H17.8573ZM28 16C29.656 16 31 17.344 31 19C31 20.656 29.656 22 28 22C26.344 22 25 20.656 25 19C25 17.344 26.344 16 28 16ZM4 16C5.656 16 7 17.344 7 19C7 20.656 5.656 22 4 22C2.344 22 1 20.656 1 19C1 17.344 2.344 16 4 16ZM21.16 19.18L22.9587 19.996L22.408 21.2107L20.6773 20.4267C20.8773 20.0267 21.044 19.616 21.16 19.18ZM10.8413 19.18C10.9573 19.6227 11.1187 20.0213 11.3213 20.4267L9.59333 21.2107L9.04133 19.996L10.8413 19.18ZM23.3333 16.6667V18H21.332C21.3453 17.5533 21.3053 17.104 21.208 16.6667H23.3333ZM10.792 16.6667C10.696 17.1027 10.656 17.5507 10.6693 17.996V18H8.66667V16.6667H10.792ZM20.0293 14.3813L21.6853 13.2053L22.4573 14.2933L20.788 15.4773C20.5933 15.0893 20.3413 14.7227 20.0293 14.3813ZM11.9707 14.38C11.664 14.716 11.4133 15.08 11.212 15.4773L9.544 14.2933L10.3147 13.2053L11.9707 14.38ZM17.884 12.9853L18.768 11.192L19.964 11.7827L19.0787 13.576C18.708 13.3307 18.3053 13.1333 17.884 12.9853ZM14.116 12.984C13.696 13.1307 13.292 13.328 12.92 13.5733L12.036 11.7827L13.232 11.192L14.116 12.984ZM10.6667 0.912V3.77733C6.74933 5.49067 3.812 9.03333 2.936 13.3213L0.224 13.3173C1.2 7.54667 5.27067 2.82133 10.6667 0.912ZM21.3333 0.912C26.7293 2.82133 30.8 7.54667 31.776 13.3173L29.064 13.3213C28.188 9.03333 25.2507 5.49067 21.3333 3.77733V0.912ZM16.6667 12.7067C16.2213 12.6547 15.7947 12.652 15.3333 12.7053V10.6667H16.6667V12.7067ZM20 9.33333H12C12 7.86 13.1933 6.66667 14.6667 6.66667H17.3333C18.04 6.66667 18.7187 6.948 19.2187 7.448C19.7187 7.948 20 8.62667 20 9.33333ZM16 0C17.656 0 19 1.344 19 3C19 4.656 17.656 6 16 6C14.344 6 13 4.656 13 3C13 1.344 14.344 0 16 0Z" fill="var(--fill-0, #7B1FBA)"/>
</g>
<defs>
<clipPath id="clip0_0_19">
<rect width="32" height="32" fill="white"/>
</clipPath>
</defs>
</svg>
