<svg preserveAspectRatio="none" width="100%" height="100%" overflow="visible" style="display: block;" viewBox="0 0 14.9333 14.9333" fill="none" xmlns="http://www.w3.org/2000/svg">
<path id="Icon" d="M11.1333 3.8H11.14M4.13333 0.8H10.8C12.6409 0.8 14.1333 2.29238 14.1333 4.13333V10.8C14.1333 12.6409 12.6409 14.1333 10.8 14.1333H4.13333C2.29238 14.1333 0.8 12.6409 0.8 10.8V4.13333C0.8 2.29238 2.29238 0.8 4.13333 0.8ZM10.1333 7.04667C10.2156 7.6015 10.1208 8.16814 9.86251 8.66601C9.60417 9.16388 9.19543 9.56761 8.69442 9.81978C8.1934 10.072 7.62563 10.1597 7.07186 10.0706C6.51808 9.98151 6.00651 9.72006 5.60989 9.32344C5.21328 8.92683 4.95182 8.41525 4.86271 7.86148C4.7736 7.3077 4.86138 6.73993 5.11355 6.23892C5.36572 5.7379 5.76946 5.32916 6.26732 5.07083C6.76519 4.8125 7.33184 4.71773 7.88667 4.8C8.45261 4.88392 8.97657 5.14764 9.38113 5.5522C9.78569 5.95677 10.0494 6.48072 10.1333 7.04667Z" stroke="var(--stroke-0, #7B1FBA)" stroke-width="1.6" stroke-linecap="round" stroke-linejoin="round"/>
</svg>
