<svg preserveAspectRatio="none" width="100%" height="100%" overflow="visible" style="display: block;" viewBox="0 0 18.6667 18.6667" fill="none" xmlns="http://www.w3.org/2000/svg">
<path id="Icon" d="M17.6667 9.33333C17.6667 13.9357 13.9357 17.6667 9.33333 17.6667M17.6667 9.33333C17.6667 4.73096 13.9357 1 9.33333 1M17.6667 9.33333H1M9.33333 17.6667C4.73096 17.6667 1 13.9357 1 9.33333M9.33333 17.6667C11.4177 15.3847 12.6023 12.4233 12.6667 9.33333C12.6023 6.24336 11.4177 3.28196 9.33333 1M9.33333 17.6667C7.24893 15.3847 6.06437 12.4233 6 9.33333C6.06437 6.24336 7.24893 3.28196 9.33333 1M1 9.33333C1 4.73096 4.73096 1 9.33333 1" stroke="var(--stroke-0, #1E1E1E)" stroke-width="2" stroke-linecap="round" stroke-linejoin="round"/>
</svg>
