<svg preserveAspectRatio="none" width="100%" height="100%" overflow="visible" style="display: block;" viewBox="0 0 32 32" fill="none" xmlns="http://www.w3.org/2000/svg">
<g id="iconmonstr-calendar-4 1" clip-path="url(#clip0_0_15)">
<path id="Vector" d="M26.6667 26.6667H21.3333V21.3333H26.6667V26.6667ZM18.6667 13.3333H13.3333V18.6667H18.6667V13.3333ZM26.6667 13.3333H21.3333V18.6667H26.6667V13.3333ZM10.6667 21.3333H5.33333V26.6667H10.6667V21.3333ZM18.6667 21.3333H13.3333V26.6667H18.6667V21.3333ZM10.6667 13.3333H5.33333V18.6667H10.6667V13.3333ZM32 2.66667V32H0V2.66667H4V4C4 5.47067 5.196 6.66667 6.66667 6.66667C8.13733 6.66667 9.33333 5.47067 9.33333 4V2.66667H22.6667V4C22.6667 5.47067 23.8627 6.66667 25.3333 6.66667C26.804 6.66667 28 5.47067 28 4V2.66667H32ZM29.3333 10.6667H2.66667V29.3333H29.3333V10.6667ZM26.6667 1.33333C26.6667 0.597333 26.0707 0 25.3333 0C24.596 0 24 0.597333 24 1.33333V4C24 4.736 24.596 5.33333 25.3333 5.33333C26.0707 5.33333 26.6667 4.736 26.6667 4V1.33333ZM8 4C8 4.736 7.404 5.33333 6.66667 5.33333C5.92933 5.33333 5.33333 4.736 5.33333 4V1.33333C5.33333 0.597333 5.92933 0 6.66667 0C7.404 0 8 0.597333 8 1.33333V4Z" fill="var(--fill-0, #000)"/>
</g>
<defs>
<clipPath id="clip0_0_15">
<rect width="32" height="32" fill="white"/>
</clipPath>
</defs>
</svg>
