<svg preserveAspectRatio="none" width="100%" height="100%" overflow="visible" style="display: block;" viewBox="0 0 32 32" fill="none" xmlns="http://www.w3.org/2000/svg">
<g id="iconmonstr-certificate-8 1">
<path id="Vector" d="M23.648 13.0227C22.9307 12.524 23.0253 12.6493 22.7547 11.8413C22.6413 11.504 22.3147 11.2747 21.948 11.2747H21.9453C21.0613 11.2787 21.2133 11.3253 20.5 10.824C20.352 10.7187 20.176 10.6667 20 10.6667C19.824 10.6667 19.648 10.7187 19.5 10.824C18.7813 11.3293 18.9373 11.2787 18.0547 11.2747H18.052C17.6853 11.2747 17.3573 11.504 17.2453 11.8413C16.9747 12.652 17.068 12.5267 16.352 13.0227C16.1267 13.1787 16 13.4253 16 13.6827L16.0413 13.936C16.3187 14.7453 16.3187 14.5893 16.0413 15.396L16 15.6507C16 15.9067 16.1267 16.1547 16.352 16.312C17.068 16.808 16.976 16.6827 17.2453 17.4933C17.3587 17.8307 17.6853 18.0587 18.052 18.0587H18.0547C18.9387 18.056 18.7867 18.008 19.5 18.5093C19.648 18.6133 19.824 18.6667 20 18.6667C20.176 18.6667 20.352 18.6133 20.5 18.5093C21.2133 18.008 21.06 18.056 21.9453 18.0587H21.948C22.3147 18.0587 22.6427 17.8307 22.7547 17.4933C23.0253 16.684 22.9307 16.8093 23.648 16.312C23.8733 16.156 24 15.9067 24 15.6507L23.9587 15.3973C23.6813 14.5867 23.6827 14.7427 23.9587 13.9373L24 13.6827C24 13.4253 23.8733 13.1773 23.648 13.0227ZM20 16.6667C18.896 16.6667 18 15.772 18 14.6667C18 13.5613 18.896 12.6667 20 12.6667C21.104 12.6667 22 13.5613 22 14.6667C22 15.772 21.104 16.6667 20 16.6667ZM21.42 20.0093L21.444 20H22.6667V29.3333L20.0253 27.62L17.3333 29.3333V20H18.5507C19.0253 20.3333 19.34 20.572 20 20.572C20.5413 20.572 21.0653 20.34 21.42 20.0093ZM32 2.66667V26.6667H25.3333C25.4653 25.1587 25.8493 22.0867 29.3333 20.5627V8.77067C27.7987 8.09867 26.568 6.868 25.896 5.33333H6.104C5.432 6.868 4.20133 8.09867 2.66667 8.77067V20.5627C4.20133 21.2347 5.432 22.4653 6.104 24H14.6667V26.6667H0V2.66667H32ZM13.3333 14.6667H6.66667V13.3333H13.3333V14.6667ZM13.3333 16H6.66667V17.3333H13.3333V16ZM10.6667 18.6667H6.66667V20H10.6667V18.6667ZM13.3333 12H6.66667V10.6667H13.3333V12Z" fill="var(--fill-0, #7B1FBA)"/>
</g>
</svg>
